<svg width="13" height="13" viewBox="0 0 13 13" fill="none" xmlns="http://www.w3.org/2000/svg">
<circle cx="6.5" cy="6.5" r="6.5" fill="#FFE872"/>
<path d="M6.50763 3.904C6.36896 3.904 6.25163 3.856 6.15563 3.76C6.05963 3.664 6.01163 3.54667 6.01163 3.408C6.01163 3.26933 6.05963 3.152 6.15563 3.056C6.25163 2.96 6.36896 2.912 6.50763 2.912C6.64096 2.912 6.75296 2.96 6.84363 3.056C6.93963 3.152 6.98763 3.26933 6.98763 3.408C6.98763 3.54667 6.93963 3.664 6.84363 3.76C6.75296 3.856 6.64096 3.904 6.50763 3.904ZM6.85963 4.616V9H6.13163V4.616H6.85963Z" fill="#3A3A3A"/>
</svg>
